<svg width="1280" height="540" xmlns="http://www.w3.org/2000/svg" font-family="Arial, sans-serif">
  <defs>
    <marker id="arr" markerWidth="10" markerHeight="7" refX="10" refY="3.5" orient="auto">
      <polygon points="0 0, 10 3.5, 0 7" fill="#555"/>
    </marker>
    <marker id="arr-rev" markerWidth="10" markerHeight="7" refX="0" refY="3.5" orient="auto">
      <polygon points="10 0, 0 3.5, 10 7" fill="#555"/>
    </marker>
    <filter id="shadow" x="-10%" y="-10%" width="120%" height="130%">
      <feDropShadow dx="2" dy="3" stdDeviation="4" flood-color="#00000022"/>
    </filter>
  </defs>

  <!-- Background -->
  <rect width="1280" height="540" fill="#F4F7FC"/>

  <!-- Orchestrator box -->
  <rect x="285" y="30" width="660" height="490" rx="18" fill="#EBF5FB" stroke="#AEB6BF" stroke-width="2" stroke-dasharray="9,5"/>
  <text x="615" y="60" text-anchor="middle" font-size="13" fill="#7F8C8D" font-weight="bold" letter-spacing="1">ORCHESTRATOR</text>

  <!-- ── User ── -->
  <circle cx="68" cy="270" r="46" fill="#E74C3C" filter="url(#shadow)"/>
  <text x="68" y="266" text-anchor="middle" font-size="14" fill="white" font-weight="bold">User</text>

  <!-- ── CLI ── -->
  <rect x="148" y="242" width="118" height="56" rx="10" fill="#3498DB" filter="url(#shadow)"/>
  <text x="207" y="267" text-anchor="middle" font-size="13" fill="white" font-weight="bold">CLI</text>
  <text x="207" y="284" text-anchor="middle" font-size="10" fill="#D6EAF8">main.py</text>

  <!-- ── JSON Log ── -->
  <rect x="148" y="348" width="118" height="48" rx="10" fill="#7F8C8D" filter="url(#shadow)"/>
  <text x="207" y="369" text-anchor="middle" font-size="12" fill="white" font-weight="bold">JSON Log</text>
  <text x="207" y="386" text-anchor="middle" font-size="10" fill="#D5D8DC">per run</text>

  <!-- ── PlannerAgent ── -->
  <rect x="308" y="155" width="162" height="90" rx="12" fill="#2980B9" filter="url(#shadow)"/>
  <text x="389" y="185" text-anchor="middle" font-size="14" fill="white" font-weight="bold">PlannerAgent</text>
  <text x="389" y="203" text-anchor="middle" font-size="10" fill="#D6EAF8">decomposes + routes</text>
  <text x="389" y="218" text-anchor="middle" font-size="10" fill="#D6EAF8">synthesizes results</text>

  <!-- ── MessageBus ── -->
  <rect x="505" y="240" width="148" height="55" rx="12" fill="#E67E22" filter="url(#shadow)"/>
  <text x="579" y="263" text-anchor="middle" font-size="13" fill="white" font-weight="bold">MessageBus</text>
  <text x="579" y="280" text-anchor="middle" font-size="10" fill="#FDEBD0">pub/sub · audit log</text>

  <!-- ── MCPToolAgent ── -->
  <rect x="690" y="120" width="150" height="90" rx="12" fill="#8E44AD" filter="url(#shadow)"/>
  <text x="765" y="150" text-anchor="middle" font-size="13" fill="white" font-weight="bold">MCPToolAgent</text>
  <text x="765" y="168" text-anchor="middle" font-size="10" fill="#E8DAEF">weather · stocks</text>
  <text x="765" y="183" text-anchor="middle" font-size="10" fill="#E8DAEF">calculate · LangGraph</text>

  <!-- ── FSAgent ── -->
  <rect x="690" y="295" width="150" height="80" rx="12" fill="#8E44AD" filter="url(#shadow)"/>
  <text x="765" y="325" text-anchor="middle" font-size="13" fill="white" font-weight="bold">FSAgent</text>
  <text x="765" y="343" text-anchor="middle" font-size="10" fill="#E8DAEF">file read / write</text>
  <text x="765" y="358" text-anchor="middle" font-size="10" fill="#E8DAEF">LangGraph</text>

  <!-- ── SharedMemory ── -->
  <rect x="420" y="405" width="215" height="75" rx="12" fill="#27AE60" filter="url(#shadow)"/>
  <text x="527" y="434" text-anchor="middle" font-size="14" fill="white" font-weight="bold">SharedMemory</text>
  <text x="527" y="452" text-anchor="middle" font-size="10" fill="#D5F5E3">versioned key-value store</text>
  <text x="527" y="468" text-anchor="middle" font-size="10" fill="#D5F5E3">audit trail</text>

  <!-- ── MCP Tools ── -->
  <rect x="965" y="100" width="165" height="45" rx="10" fill="#16A085" filter="url(#shadow)"/>
  <text x="1047" y="120" text-anchor="middle" font-size="12" fill="white" font-weight="bold">calculate</text>
  <text x="1047" y="136" text-anchor="middle" font-size="10" fill="#A3E4D7">arithmetic expressions</text>

  <rect x="965" y="155" width="165" height="45" rx="10" fill="#16A085" filter="url(#shadow)"/>
  <text x="1047" y="175" text-anchor="middle" font-size="12" fill="white" font-weight="bold">get_weather</text>
  <text x="1047" y="191" text-anchor="middle" font-size="10" fill="#A3E4D7">Open-Meteo API</text>

  <rect x="965" y="210" width="165" height="45" rx="10" fill="#16A085" filter="url(#shadow)"/>
  <text x="1047" y="230" text-anchor="middle" font-size="12" fill="white" font-weight="bold">get_stock_price</text>
  <text x="1047" y="246" text-anchor="middle" font-size="10" fill="#A3E4D7">Yahoo Finance</text>

  <!-- ── FS Tools ── -->
  <rect x="965" y="305" width="165" height="45" rx="10" fill="#16A085" filter="url(#shadow)"/>
  <text x="1047" y="325" text-anchor="middle" font-size="12" fill="white" font-weight="bold">file_read / file_write</text>
  <text x="1047" y="341" text-anchor="middle" font-size="10" fill="#A3E4D7">sandboxed workspace</text>

  <!-- ── Sandbox ── -->
  <rect x="1150" y="305" width="112" height="45" rx="10" fill="#C0392B" filter="url(#shadow)"/>
  <text x="1206" y="325" text-anchor="middle" font-size="12" fill="white" font-weight="bold">Sandbox</text>
  <text x="1206" y="341" text-anchor="middle" font-size="10" fill="#FADBD8">credentials, users</text>

  <!-- ════ Arrows ════ -->

  <!-- User → CLI -->
  <line x1="114" y1="270" x2="146" y2="270" stroke="#555" stroke-width="2" marker-end="url(#arr)"/>

  <!-- CLI → Orchestrator -->
  <line x1="266" y1="270" x2="283" y2="270" stroke="#555" stroke-width="2" marker-end="url(#arr)"/>

  <!-- CLI → Log (dashed) -->
  <line x1="207" y1="298" x2="207" y2="346" stroke="#999" stroke-width="1.5" stroke-dasharray="5,3" marker-end="url(#arr)"/>

  <!-- Planner ↔ MessageBus -->
  <line x1="470" y1="205" x2="505" y2="252" stroke="#555" stroke-width="2"
        marker-start="url(#arr-rev)" marker-end="url(#arr)"/>

  <!-- MessageBus ↔ MCPToolAgent -->
  <line x1="653" y1="255" x2="688" y2="180" stroke="#555" stroke-width="2"
        marker-start="url(#arr-rev)" marker-end="url(#arr)"/>

  <!-- MessageBus ↔ FSAgent -->
  <line x1="653" y1="275" x2="688" y2="325" stroke="#555" stroke-width="2"
        marker-start="url(#arr-rev)" marker-end="url(#arr)"/>

  <!-- Planner ↔ SharedMemory -->
  <line x1="389" y1="245" x2="460" y2="403" stroke="#555" stroke-width="1.5"
        marker-start="url(#arr-rev)" marker-end="url(#arr)"/>

  <!-- MCPToolAgent ↔ SharedMemory -->
  <line x1="740" y1="210" x2="607" y2="403" stroke="#555" stroke-width="1.5"
        marker-start="url(#arr-rev)" marker-end="url(#arr)"/>

  <!-- FSAgent ↔ SharedMemory -->
  <line x1="730" y1="375" x2="618" y2="407" stroke="#555" stroke-width="1.5"
        marker-start="url(#arr-rev)" marker-end="url(#arr)"/>

  <!-- MCPToolAgent → Tools (fan out) -->
  <line x1="840" y1="148" x2="963" y2="122" stroke="#555" stroke-width="1.5" marker-end="url(#arr)"/>
  <line x1="840" y1="163" x2="963" y2="177" stroke="#555" stroke-width="1.5" marker-end="url(#arr)"/>
  <line x1="840" y1="178" x2="963" y2="232" stroke="#555" stroke-width="1.5" marker-end="url(#arr)"/>

  <!-- FSAgent → file tools -->
  <line x1="840" y1="327" x2="963" y2="327" stroke="#555" stroke-width="1.5" marker-end="url(#arr)"/>

  <!-- file tools → Sandbox -->
  <line x1="1130" y1="327" x2="1148" y2="327" stroke="#555" stroke-width="1.5" marker-end="url(#arr)"/>

</svg>
